<?xml version="1.0" encoding="UTF-8" standalone="no" ?>
<!DOCTYPE svg PUBLIC "-//W3C//DTD SVG 1.1//EN" "http://www.w3.org/Graphics/SVG/1.1/DTD/svg11.dtd">
<svg xmlns="http://www.w3.org/2000/svg" xmlns:xlink="http://www.w3.org/1999/xlink" version="1.1" width="500" height="500" viewBox="0 0 500 500" xml:space="preserve">
<desc>Created with Fabric.js 4.6.0</desc>
<defs>
</defs>
<g transform="matrix(0.78 0 0 0.78 65.08 78.39)" id="dQC6aaHMjzaeB9sI_WZvP"  >
<path style="stroke: rgb(38,131,236); stroke-width: 0; stroke-dasharray: none; stroke-linecap: butt; stroke-dashoffset: 0; stroke-linejoin: miter; stroke-miterlimit: 4; fill: rgb(0,0,0); fill-rule: nonzero; opacity: 1;" vector-effect="non-scaling-stroke"  transform=" translate(0, 0)" d="M 0 -26.91066 C 14.85468 -26.91066 26.91066 -14.85469 26.91066 0 C 26.91066 14.85468 14.85469 26.91066 0 26.91066 C -14.85468 26.91066 -26.91066 14.85469 -26.91066 0 C -26.91066 -14.85468 -14.85469 -26.91066 0 -26.91066 z" stroke-linecap="round" />
</g>
<g transform="matrix(1.31 0 0 1.31 235.19 255.49)" id="0WfSHHxAZ03pdNozfSPrs"  >
<path style="stroke: rgb(0,0,0); stroke-width: 1; stroke-dasharray: none; stroke-linecap: butt; stroke-dashoffset: 0; stroke-linejoin: miter; stroke-miterlimit: 4; fill: rgb(255,255,255); fill-opacity: 0; fill-rule: nonzero; opacity: 1;" vector-effect="non-scaling-stroke"  transform=" translate(0, 0)" d="M -172.2282 -70.50592 L -130.48496 -113.56297 L -135.6297 113.56297 L -44.13347000000002 -113.56297 L 22.604959999999977 113.56297 L 89.34338999999997 -113.56297 L 172.22821 113.56297 L 172.22821 -113.56297" stroke-linecap="round" />
</g>
<g transform="matrix(1.31 0 0 -1.31 259.59 412.53)" id="YjRYCE4l4GQEb7d7JJ9Cu"  >
<path style="stroke: rgb(0,0,0); stroke-width: 1; stroke-dasharray: none; stroke-linecap: butt; stroke-dashoffset: 0; stroke-linejoin: miter; stroke-miterlimit: 4; fill: rgb(255,255,255); fill-opacity: 0; fill-rule: nonzero; opacity: 1;" vector-effect="non-scaling-stroke"  transform=" translate(0, 0)" d="M 153.84467 0 L -153.84467999999998 0" stroke-linecap="round" />
</g>
<g transform="matrix(0.78 0 0 0.78 58.17 441.46)" id="WgXXBfjTbC2WHsawtJXQY"  >
<path style="stroke: rgb(0,0,0); stroke-width: 1; stroke-dasharray: none; stroke-linecap: butt; stroke-dashoffset: 0; stroke-linejoin: miter; stroke-miterlimit: 4; fill: none; fill-rule: nonzero; opacity: 1;" vector-effect="non-scaling-stroke"  transform=" translate(0, 0)" d="M 0 -26.91066 C 14.85468 -26.91066 26.91066 -14.85469 26.91066 0 C 26.91066 14.85468 14.85469 26.91066 0 26.91066 C -14.85468 26.91066 -26.91066 14.85469 -26.91066 0 C -26.91066 -14.85468 -14.85469 -26.91066 0 -26.91066 z" stroke-linecap="round" />
</g>
<g transform="matrix(0.78 0 0 0.78 460.92 441.46)" id="LG0ESEMcHmd3KW66gqCt_"  >
<path style="stroke: rgb(0,0,0); stroke-width: 1; stroke-dasharray: none; stroke-linecap: butt; stroke-dashoffset: 0; stroke-linejoin: miter; stroke-miterlimit: 4; fill: none; fill-rule: nonzero; opacity: 1;" vector-effect="non-scaling-stroke"  transform=" translate(0, 0)" d="M 0 -26.91066 C 14.85468 -26.91066 26.91066 -14.85469 26.91066 0 C 26.91066 14.85468 14.85469 26.91066 0 26.91066 C -14.85468 26.91066 -26.91066 14.85469 -26.91066 0 C -26.91066 -14.85468 -14.85469 -26.91066 0 -26.91066 z" stroke-linecap="round" />
</g>
</svg>